<svg xmlns="http://www.w3.org/2000/svg" viewBox="0 0 64 64" role="img" aria-labelledby="title">
<title id="title">Social Intelligence</title>
<g fill="none" stroke-linecap="round" stroke-linejoin="round">
  <path d="M32 30L18 18M32 30l14-12M32 30L17 45M32 30l15 15" stroke="#526a78" stroke-width="1.8"/>
  <circle cx="32" cy="30" r="5" fill="#5f8fab" stroke="#b3cad6" stroke-width="1.2"/>
  <circle cx="18" cy="18" r="8" fill="#172630" stroke="#7f96a5" stroke-width="1.5"/>
  <circle cx="46" cy="18" r="8" fill="#172630" stroke="#7f96a5" stroke-width="1.5"/>
  <circle cx="17" cy="45" r="8" fill="#172630" stroke="#7f96a5" stroke-width="1.5"/>
  <circle cx="47" cy="45" r="8" fill="#172630" stroke="#7f96a5" stroke-width="1.5"/>
  <circle cx="18" cy="16.5" r="2.1" fill="#8fa6b3"/>
  <path d="M14.5 21c1.1-2.2 2.3-3.1 3.5-3.1s2.4.9 3.5 3.1" stroke="#8fa6b3" stroke-width="1.3"/>
  <circle cx="46" cy="16.5" r="2.1" fill="#8fa6b3"/>
  <path d="M42.5 21c1.1-2.2 2.3-3.1 3.5-3.1s2.4.9 3.5 3.1" stroke="#8fa6b3" stroke-width="1.3"/>
  <circle cx="17" cy="43.5" r="2.1" fill="#8fa6b3"/>
  <path d="M13.5 48c1.1-2.2 2.3-3.1 3.5-3.1s2.4.9 3.5 3.1" stroke="#8fa6b3" stroke-width="1.3"/>
  <circle cx="47" cy="43.5" r="2.1" fill="#8fa6b3"/>
  <path d="M43.5 48c1.1-2.2 2.3-3.1 3.5-3.1s2.4.9 3.5 3.1" stroke="#8fa6b3" stroke-width="1.3"/>
</g>
</svg>